<svg width="408" height="269" viewBox="0 0 408 269" fill="none" xmlns="http://www.w3.org/2000/svg">
<g clip-path="url(#clip0_30_664)">
<path d="M204 240.438C316.666 240.438 408 237.178 408 233.157C408 229.135 316.666 225.875 204 225.875C91.3339 225.875 0 229.135 0 233.157C0 237.178 91.3339 240.438 204 240.438Z" fill="#E6E6E6"/>
<path d="M312.718 154.258C312.46 154.263 312.203 154.267 311.941 154.267C311.68 154.267 311.423 154.263 311.165 154.258C297.509 153.862 287.612 142.975 290.131 131.551L296.274 103.685L297.827 96.6337L325.35 97.2325L327.023 104.131L333.607 131.281C336.395 142.767 326.497 153.862 312.718 154.258Z" fill="#3F3D56"/>
<path opacity="0.2" d="M327.023 104.131C322.33 107.554 317.006 109.317 311.601 109.238C306.196 109.16 300.905 107.243 296.274 103.685L297.827 96.6337L325.35 97.2325L327.023 104.131Z" fill="black"/>
<path d="M325.861 132.476C327.05 126.822 330.958 118.665 341.916 108.831C361.029 91.6768 349.627 78.8147 349.133 78.2758C348.097 77.1454 348.25 75.8761 349.489 75.4425C350.209 75.2588 350.951 75.2737 351.666 75.4861C352.382 75.6984 353.053 76.1034 353.635 76.6738C354.254 77.327 368.531 92.8842 346.964 112.238C327.555 129.659 331.681 141.03 331.729 141.139C332.249 142.355 331.415 143.329 329.864 143.316C328.314 143.302 326.634 142.307 326.112 141.092C326.002 140.835 324.753 137.74 325.861 132.476Z" fill="#3F3D56"/>
<path d="M299.238 158.319C298.821 158.319 298.408 158.215 298.023 158.011C297.638 157.807 297.288 157.509 296.993 157.133C296.698 156.756 296.464 156.31 296.304 155.818C296.145 155.326 296.062 154.799 296.063 154.267V136.707C296.063 135.632 296.397 134.601 296.993 133.841C297.588 133.082 298.396 132.655 299.238 132.655C300.081 132.655 300.888 133.082 301.484 133.841C302.079 134.601 302.414 135.632 302.414 136.707V154.267C302.414 154.799 302.332 155.326 302.172 155.818C302.013 156.31 301.779 156.756 301.484 157.133C301.189 157.509 300.839 157.807 300.454 158.011C300.068 158.215 299.655 158.319 299.238 158.319Z" fill="#3F3D56"/>
<path d="M302.023 116.631C301.848 117.114 301.601 117.549 301.295 117.911C300.989 118.272 300.63 118.553 300.239 118.738C299.848 118.922 299.432 119.007 299.015 118.986C298.599 118.966 298.189 118.841 297.81 118.618L285.308 111.279C284.544 110.829 283.951 110.01 283.66 109.003C283.368 107.995 283.402 106.881 283.754 105.905C284.106 104.93 284.747 104.172 285.536 103.799C286.325 103.426 287.198 103.468 287.963 103.916L300.465 111.256C300.844 111.478 301.185 111.793 301.468 112.184C301.751 112.574 301.972 113.032 302.116 113.532C302.261 114.031 302.327 114.561 302.311 115.093C302.295 115.625 302.197 116.147 302.023 116.631Z" fill="#3F3D56"/>
<path d="M321.86 116.631C322.034 117.114 322.281 117.549 322.587 117.911C322.893 118.272 323.252 118.553 323.643 118.738C324.035 118.922 324.45 119.007 324.867 118.986C325.284 118.966 325.693 118.841 326.072 118.618L338.574 111.279C339.339 110.83 339.933 110.011 340.225 109.003C340.518 107.995 340.484 106.88 340.132 105.904C339.78 104.927 339.138 104.169 338.348 103.797C337.558 103.424 336.685 103.467 335.919 103.916L323.417 111.256C323.039 111.478 322.698 111.793 322.414 112.184C322.131 112.574 321.911 113.032 321.766 113.532C321.622 114.031 321.555 114.561 321.571 115.093C321.588 115.625 321.686 116.147 321.86 116.631Z" fill="#3F3D56"/>
<path d="M324.644 158.319C325.061 158.319 325.474 158.215 325.86 158.011C326.245 157.807 326.595 157.509 326.89 157.133C327.185 156.756 327.419 156.31 327.578 155.818C327.738 155.326 327.82 154.799 327.82 154.267V136.707C327.82 135.632 327.485 134.601 326.89 133.841C326.294 133.082 325.487 132.655 324.644 132.655C323.802 132.655 322.994 133.082 322.399 133.841C321.803 134.601 321.469 135.632 321.469 136.707V154.267C321.468 154.799 321.551 155.326 321.71 155.818C321.87 156.31 322.104 156.756 322.399 157.133C322.694 157.509 323.044 157.807 323.429 158.011C323.814 158.215 324.227 158.319 324.644 158.319Z" fill="#3F3D56"/>
<path d="M337.916 44.6351C338.191 44.194 338.389 43.6837 338.497 43.1378C338.606 42.5919 338.623 42.0228 338.547 41.4681L336.818 28.4935L335.09 15.519C334.996 14.8185 334.76 14.1616 334.405 13.6145C334.05 13.0673 333.588 12.6492 333.066 12.4021C332.543 12.1549 331.98 12.0875 331.431 12.2066C330.882 12.3257 330.367 12.6271 329.938 13.0805L321.997 21.4777L317.212 26.5368C314.021 25.8128 310.76 25.75 307.553 26.3509L302.945 21.4777L295.003 13.0805C294.574 12.6271 294.06 12.3257 293.511 12.2066C292.962 12.0875 292.398 12.1549 291.876 12.4021C291.354 12.6492 290.892 13.0674 290.536 13.6145C290.181 14.1616 289.945 14.8185 289.852 15.519L288.123 28.4936L286.395 41.4681C286.302 42.15 286.35 42.8508 286.533 43.5022C283.571 49.2965 281.88 55.9977 281.635 62.9087C281.391 69.8198 282.602 76.6882 285.143 82.7995C287.683 88.9109 291.461 94.0418 296.083 97.6587C300.704 101.276 306.001 103.246 311.422 103.366C316.842 103.485 322.189 101.749 326.906 98.3383C331.623 94.9273 335.537 89.9659 338.242 83.9702C340.947 77.9746 342.343 71.1636 342.286 64.2459C342.229 57.3282 340.72 50.5565 337.916 44.6351Z" fill="#3F3D56"/>
<path d="M294.207 18.3973C294.019 18.3976 293.832 18.4409 293.656 18.525C293.396 18.6455 293.167 18.852 292.991 19.1232C292.814 19.3944 292.698 19.7205 292.653 20.0682L290.557 35.8022C290.511 36.1491 290.537 36.5053 290.633 36.8352C290.729 37.165 290.891 37.4568 291.104 37.6813C291.316 37.9057 291.571 38.0549 291.843 38.1139C292.114 38.1728 292.394 38.1394 292.652 38.0171L304.379 32.4662C304.637 32.3438 304.866 32.1368 305.042 31.866C305.218 31.5951 305.334 31.27 305.381 30.9232C305.427 30.5764 305.401 30.2202 305.305 29.8904C305.209 29.5606 305.047 29.2688 304.835 29.0444L295.204 18.8609C294.925 18.5622 294.572 18.3981 294.207 18.3973Z" fill="#E6E6E6"/>
<path d="M330.734 18.3973C330.369 18.3981 330.017 18.5622 329.737 18.8609L320.107 29.0444C319.894 29.2688 319.732 29.5606 319.636 29.8904C319.54 30.2202 319.514 30.5764 319.561 30.9232C319.607 31.27 319.724 31.5951 319.9 31.866C320.075 32.1368 320.304 32.3438 320.563 32.4662L332.289 38.0171C332.548 38.1394 332.827 38.1728 333.099 38.1139C333.37 38.0549 333.625 37.9057 333.837 37.6813C334.05 37.4568 334.212 37.165 334.308 36.8352C334.404 36.5053 334.43 36.1491 334.384 35.8022L332.288 20.0682C332.243 19.7205 332.127 19.3944 331.951 19.1232C331.774 18.852 331.545 18.6455 331.285 18.525C331.109 18.4409 330.922 18.3976 330.734 18.3973Z" fill="#E6E6E6"/>
<path d="M311.941 75.4714C314.28 75.4714 316.176 73.0523 316.176 70.0683C316.176 67.0842 314.28 64.6651 311.941 64.6651C309.603 64.6651 307.707 67.0842 307.707 70.0683C307.707 73.0523 309.603 75.4714 311.941 75.4714Z" fill="#E6E6E6"/>
<path d="M311.941 68.7175C313.5 68.7175 314.764 68.1127 314.764 67.3667C314.764 66.6207 313.5 66.0159 311.941 66.0159C310.382 66.0159 309.118 66.6207 309.118 67.3667C309.118 68.1127 310.382 68.7175 311.941 68.7175Z" fill="#3F3D56"/>
<path d="M309.824 73.2201H313.706V79.2986C313.706 79.6238 313.655 79.9459 313.558 80.2463C313.46 80.5468 313.317 80.8198 313.137 81.0497C312.957 81.2797 312.743 81.4621 312.508 81.5866C312.272 81.711 312.02 81.7751 311.765 81.7751C311.25 81.7751 310.757 81.5142 310.393 81.0497C310.029 80.5853 309.824 79.9554 309.824 79.2986L309.824 73.2201Z" fill="#FF6584"/>
<path d="M312.177 11.9337C311.973 12.4723 311.776 13.0167 311.59 13.5722C309.4 20.0892 308.661 27.2506 309.456 34.2686C309.853 33.5331 310.27 32.7668 310.695 31.992C309.785 25.2566 310.297 18.3336 312.177 11.9337Z" fill="#3F3D56"/>
<path d="M315.353 16.8866C315.149 17.4252 314.951 17.9696 314.766 18.5251C312.576 25.042 311.837 32.2035 312.631 39.2215C313.029 38.486 313.446 37.7197 313.871 36.945C312.961 30.2095 313.473 23.2865 315.353 16.8866Z" fill="#3F3D56"/>
<path d="M325.144 114.121L324.696 106.862L324.249 99.6016C324.225 99.2096 324.12 98.8326 323.946 98.5085C323.771 98.1845 323.533 97.9247 323.255 97.7554C322.977 97.5861 322.668 97.5132 322.361 97.544C322.054 97.5749 321.759 97.7083 321.505 97.931L316.801 102.055L313.366 105.067C313.147 104.739 312.874 104.476 312.567 104.295C312.26 104.115 311.926 104.021 311.588 104.021C311.25 104.021 310.916 104.115 310.609 104.295C310.302 104.476 310.03 104.739 309.81 105.067L306.376 102.055L301.672 97.931C301.418 97.7083 301.123 97.5748 300.815 97.544C300.508 97.5132 300.2 97.5861 299.922 97.7554C299.644 97.9247 299.406 98.1844 299.231 98.5085C299.057 98.8326 298.952 99.2095 298.928 99.6015L298.48 106.862L298.033 114.121C298.009 114.513 298.066 114.907 298.199 115.262C298.331 115.616 298.535 115.92 298.789 116.143C299.043 116.366 299.338 116.499 299.645 116.53C299.953 116.561 300.261 116.488 300.539 116.319L305.69 113.183L309.922 110.607C310.14 110.888 310.399 111.112 310.685 111.265C310.971 111.417 311.278 111.496 311.588 111.496C311.898 111.496 312.205 111.417 312.491 111.265C312.777 111.112 313.037 110.888 313.255 110.607L317.487 113.183L322.638 116.319C322.916 116.488 323.224 116.561 323.531 116.53C323.838 116.499 324.134 116.366 324.388 116.143C324.642 115.921 324.845 115.616 324.978 115.262C325.111 114.907 325.168 114.513 325.144 114.121Z" fill="#6C63FF"/>
<path d="M306.295 65.5656C306.88 65.5656 307.354 64.9609 307.354 64.2149C307.354 63.4688 306.88 62.8641 306.295 62.8641C305.711 62.8641 305.237 63.4688 305.237 64.2149C305.237 64.9609 305.711 65.5656 306.295 65.5656Z" fill="#E6E6E6"/>
<path d="M317.587 65.5656C318.172 65.5656 318.646 64.9609 318.646 64.2149C318.646 63.4688 318.172 62.8641 317.587 62.8641C317.003 62.8641 316.529 63.4688 316.529 64.2149C316.529 64.9609 317.003 65.5656 317.587 65.5656Z" fill="#E6E6E6"/>
<path d="M107.12 142.324C107.377 142.329 107.635 142.333 107.896 142.333C108.157 142.333 108.415 142.329 108.672 142.324C122.328 141.928 132.226 131.041 129.707 119.618L123.563 91.7511L122.011 84.7L94.4874 85.2988L92.8148 92.1968L86.2304 119.348C83.4428 130.834 93.3406 141.928 107.12 142.324Z" fill="#3F3D56"/>
<path opacity="0.2" d="M92.8147 92.1968C97.5076 95.6199 102.831 97.3832 108.236 97.3048C113.642 97.2264 118.932 95.3093 123.563 91.7511L122.011 84.7L94.4873 85.2988L92.8147 92.1968Z" fill="black"/>
<path d="M90.6335 117.24C87.6628 112.778 81.3957 107.54 68.193 104.635C45.1663 99.5661 51.158 81.7157 51.4238 80.9589C51.9815 79.3713 51.4176 78.3077 50.1521 78.5924C49.4398 78.8195 48.7739 79.2382 48.1988 79.8206C47.6238 80.4029 47.1529 81.1354 46.8179 81.9689C46.4776 82.8972 38.7907 104.753 64.7734 110.47C88.1579 115.618 88.2413 128.149 88.2351 128.273C88.1728 129.657 89.253 130.081 90.6501 129.222C92.0472 128.364 93.2315 126.547 93.2956 125.164C93.3086 124.872 93.3996 121.392 90.6335 117.24Z" fill="#3F3D56"/>
<path d="M120.599 146.386C121.016 146.386 121.429 146.281 121.814 146.077C122.2 145.874 122.55 145.575 122.845 145.199C123.14 144.823 123.374 144.376 123.533 143.884C123.693 143.393 123.775 142.866 123.775 142.333V124.773C123.774 123.699 123.439 122.67 122.843 121.911C122.248 121.152 121.441 120.726 120.599 120.726C119.757 120.726 118.95 121.152 118.355 121.911C117.759 122.67 117.424 123.699 117.423 124.773V142.333C117.423 142.866 117.505 143.393 117.665 143.884C117.825 144.376 118.059 144.823 118.353 145.199C118.648 145.575 118.998 145.874 119.384 146.077C119.769 146.281 120.182 146.386 120.599 146.386Z" fill="#3F3D56"/>
<path d="M117.815 104.697C117.989 105.181 118.236 105.615 118.542 105.977C118.848 106.339 119.207 106.62 119.598 106.804C119.989 106.989 120.405 107.073 120.822 107.053C121.239 107.032 121.648 106.907 122.027 106.685L134.529 99.3451C134.908 99.123 135.25 98.8077 135.533 98.4172C135.817 98.0267 136.038 97.5687 136.183 97.0693C136.328 96.57 136.394 96.039 136.378 95.5069C136.362 94.9748 136.264 94.4519 136.09 93.9681C135.915 93.4843 135.668 93.0491 135.362 92.6875C135.055 92.3258 134.696 92.0447 134.305 91.8603C133.913 91.6759 133.497 91.5917 133.08 91.6126C132.663 91.6336 132.253 91.7592 131.874 91.9823L119.372 99.3219C118.993 99.5443 118.653 99.8598 118.369 100.25C118.086 100.641 117.866 101.099 117.721 101.598C117.576 102.097 117.51 102.628 117.526 103.159C117.542 103.691 117.64 104.214 117.815 104.697Z" fill="#3F3D56"/>
<path d="M97.9774 104.697C97.8031 105.181 97.5559 105.615 97.2498 105.977C96.9438 106.339 96.585 106.62 96.1938 106.804C95.8026 106.989 95.3868 107.073 94.9701 107.053C94.5533 107.032 94.1438 106.907 93.765 106.685L81.2631 99.3451C80.8837 99.123 80.5424 98.8077 80.2587 98.4172C79.9749 98.0267 79.7543 97.5687 79.6093 97.0693C79.4644 96.57 79.398 96.039 79.4139 95.5069C79.4299 94.9748 79.5279 94.4519 79.7023 93.9681C79.8768 93.4843 80.1242 93.0491 80.4305 92.6875C80.7368 92.3258 81.096 92.0447 81.4875 91.8603C81.879 91.6759 82.2952 91.5917 82.7122 91.6126C83.1292 91.6336 83.5389 91.7592 83.9178 91.9823L96.4197 99.3219C96.7986 99.5443 97.1394 99.8598 97.4228 100.25C97.7061 100.641 97.9264 101.099 98.071 101.598C98.2157 102.097 98.2818 102.628 98.2658 103.159C98.2497 103.691 98.1517 104.214 97.9774 104.697Z" fill="#3F3D56"/>
<path d="M95.1931 146.386C94.776 146.386 94.3631 146.281 93.9778 146.077C93.5925 145.874 93.2424 145.575 92.9475 145.199C92.6526 144.823 92.4186 144.376 92.2591 143.884C92.0995 143.393 92.0173 142.866 92.0173 142.333V124.773C92.0183 123.699 92.3534 122.67 92.9488 121.911C93.5443 121.152 94.3515 120.726 95.1931 120.726C96.0347 120.726 96.8419 121.152 97.4373 121.911C98.0328 122.67 98.3678 123.699 98.3689 124.773V142.333C98.3689 142.866 98.2867 143.393 98.1271 143.884C97.9675 144.376 97.7336 144.823 97.4387 145.199C97.1438 145.575 96.7937 145.874 96.4084 146.077C96.0231 146.281 95.6101 146.386 95.1931 146.386Z" fill="#3F3D56"/>
<path d="M133.304 31.5685C133.487 30.9171 133.535 30.2163 133.443 29.5344L131.714 16.5598L129.986 3.58532C129.892 2.88479 129.656 2.22794 129.301 1.6808C128.946 1.13366 128.484 0.715511 127.962 0.468372C127.439 0.221232 126.876 0.153808 126.327 0.272889C125.778 0.39197 125.263 0.693359 124.834 1.14675L116.893 9.54403L112.284 14.4172C109.077 13.8163 105.816 13.8791 102.625 14.6031L97.8408 9.54401L89.8993 1.14674C89.4705 0.69334 88.9558 0.391953 88.4068 0.272871C87.8578 0.153789 87.2939 0.221205 86.7718 0.468345C86.2497 0.715485 85.7877 1.13364 85.4324 1.68078C85.0771 2.22792 84.8409 2.88477 84.7476 3.5853L83.0192 16.5598L81.2907 29.5344C81.2145 30.0891 81.2312 30.6582 81.3398 31.2041C81.4485 31.75 81.6466 32.2603 81.9211 32.7014C79.114 38.6241 77.6023 45.3986 77.5431 52.3198C77.4839 59.241 78.8794 66.056 81.5845 72.0555C84.2895 78.0551 88.2052 83.0199 92.9241 86.4334C97.6429 89.8468 102.992 91.5842 108.416 91.4646C113.84 91.345 119.139 89.3729 123.763 85.7534C128.386 82.134 132.165 76.9995 134.706 70.8843C137.247 64.7691 138.457 57.8967 138.211 50.9823C137.964 44.0678 136.27 37.364 133.304 31.5685Z" fill="#3F3D56"/>
<path d="M124.633 6.92725L115.003 17.1102C114.791 17.3347 114.628 17.6269 114.532 17.9567C114.436 18.2865 114.41 18.6427 114.457 18.9895C114.503 19.3363 114.62 19.6614 114.796 19.9323C114.971 20.2031 115.2 20.4101 115.459 20.5325L127.185 26.0834C127.444 26.2057 127.723 26.2391 127.995 26.1802C128.266 26.1212 128.521 25.972 128.733 25.7476C128.946 25.5231 129.108 25.2313 129.204 24.9015C129.3 24.5716 129.326 24.2154 129.28 23.8686L127.184 8.13446C127.139 7.78685 127.023 7.46068 126.847 7.18948C126.67 6.91827 126.441 6.71181 126.181 6.59131C126.005 6.50718 125.818 6.46392 125.63 6.46358C125.265 6.46445 124.913 6.62854 124.633 6.92725Z" fill="#E6E6E6"/>
<path d="M88.552 6.59131C88.2926 6.71181 88.063 6.91826 87.8868 7.18947C87.7106 7.46067 87.5942 7.78685 87.5496 8.13446L85.4536 23.8686C85.4074 24.2154 85.4336 24.5716 85.5295 24.9015C85.6254 25.2313 85.7876 25.5231 85.9999 25.7476C86.2122 25.972 86.4671 26.1212 86.7389 26.1802C87.0107 26.2391 87.2899 26.2057 87.5484 26.0834L99.2748 20.5325C99.5333 20.4101 99.762 20.2031 99.9378 19.9323C100.114 19.6614 100.231 19.3363 100.277 18.9895C100.323 18.6427 100.297 18.2865 100.201 17.9567C100.105 17.6269 99.943 17.3351 99.7307 17.1107L90.1002 6.92725C89.8208 6.62853 89.468 6.46444 89.1035 6.46358C88.9152 6.46392 88.7284 6.50718 88.552 6.59131Z" fill="#E6E6E6"/>
<path d="M107.896 63.5377C110.235 63.5377 112.13 61.1187 112.13 58.1346C112.13 55.1505 110.235 52.7314 107.896 52.7314C105.557 52.7314 103.662 55.1505 103.662 58.1346C103.662 61.1187 105.557 63.5377 107.896 63.5377Z" fill="#E6E6E6"/>
<path d="M107.896 56.7838C109.455 56.7838 110.719 56.179 110.719 55.433C110.719 54.687 109.455 54.0822 107.896 54.0822C106.337 54.0822 105.073 54.687 105.073 55.433C105.073 56.179 106.337 56.7838 107.896 56.7838Z" fill="#3F3D56"/>
<path d="M108.072 69.8414C107.818 69.8414 107.565 69.7773 107.33 69.6529C107.094 69.5284 106.88 69.346 106.7 69.116C106.52 68.8861 106.377 68.6131 106.279 68.3126C106.182 68.0121 106.132 67.6901 106.132 67.3649V61.2864H110.013V67.3649C110.013 67.6901 109.963 68.0121 109.865 68.3126C109.768 68.6131 109.625 68.8861 109.445 69.116C109.265 69.346 109.051 69.5284 108.815 69.6529C108.58 69.7773 108.327 69.8414 108.072 69.8414Z" fill="#FF6584"/>
<path d="M107.66 0C107.864 0.538586 108.062 1.083 108.247 1.63854C110.437 8.15547 111.176 15.317 110.382 22.3349C109.984 21.5994 109.567 20.8331 109.142 20.0584C110.052 13.3229 109.54 6.39993 107.66 0Z" fill="#3F3D56"/>
<path d="M104.485 4.95288C104.688 5.49147 104.886 6.03588 105.072 6.59142C107.262 13.1083 108 20.2698 107.206 27.2878C106.809 26.5523 106.391 25.786 105.966 25.0112C106.876 18.2758 106.365 11.3528 104.485 4.95288Z" fill="#3F3D56"/>
<path d="M94.6936 23.3921L95.141 16.1321L95.5884 8.87212C95.6125 8.48013 95.7171 8.10315 95.8917 7.77909C96.0662 7.45502 96.3045 7.19528 96.5826 7.02598C96.8607 6.85668 97.1688 6.78378 97.476 6.8146C97.7832 6.84543 98.0787 6.9789 98.3326 7.20159L103.036 11.326L106.471 14.3377C106.69 14.0097 106.963 13.7464 107.27 13.5658C107.577 13.3853 107.911 13.2918 108.249 13.2918C108.587 13.2918 108.921 13.3853 109.228 13.5658C109.535 13.7464 109.808 14.0097 110.027 14.3377L113.462 11.326L118.165 7.20159C118.419 6.9789 118.715 6.84543 119.022 6.8146C119.329 6.78378 119.637 6.85668 119.915 7.02598C120.194 7.19528 120.432 7.45502 120.606 7.77909C120.781 8.10315 120.885 8.48013 120.91 8.87212L121.357 16.1321L121.804 23.3921C121.828 23.784 121.771 24.1772 121.639 24.5321C121.506 24.887 121.302 25.1911 121.048 25.4138C120.795 25.6364 120.499 25.7699 120.192 25.8007C119.885 25.8316 119.577 25.7587 119.298 25.5894L114.147 22.4538L109.915 19.8774C109.697 20.1589 109.438 20.3825 109.152 20.5351C108.866 20.6877 108.559 20.7663 108.249 20.7663C107.939 20.7663 107.632 20.6877 107.346 20.5351C107.06 20.3825 106.801 20.1589 106.583 19.8774L102.35 22.4538L97.1995 25.5894C96.9214 25.7587 96.6133 25.8316 96.3061 25.8008C95.9989 25.77 95.7034 25.6365 95.4495 25.4138C95.1955 25.1911 94.992 24.887 94.8593 24.5321C94.7266 24.1772 94.6695 23.7841 94.6936 23.3921Z" fill="#6C63FF"/>
<path d="M112.483 52.2812C112.483 53.0272 112.957 52.2812 113.542 52.2812C114.126 52.2812 114.6 53.0272 114.6 52.2812C114.6 51.9234 114.488 51.5806 114.289 51.3278C114.091 51.0751 113.822 50.9332 113.542 50.9332C113.261 50.9332 112.992 51.0751 112.794 51.3278C112.596 51.5806 112.484 51.9234 112.483 52.2812Z" fill="#E6E6E6"/>
<path d="M103.309 52.2812C103.309 53.0272 102.835 52.2812 102.25 52.2812C101.666 52.2812 101.192 53.0272 101.192 52.2812C101.192 51.9234 101.304 51.5806 101.502 51.3278C101.701 51.0751 101.97 50.9332 102.25 50.9332C102.531 50.9332 102.8 51.0751 102.998 51.3278C103.196 51.5806 103.308 51.9234 103.309 52.2812Z" fill="#E6E6E6"/>
<path d="M220.756 154.27V145.683H187.112V146.22V154.27V223.495V232.082H193.84H220.756V223.495H193.84V154.27H220.756Z" fill="#3F3D56"/>
<path d="M237.157 145.684V232.082H270.801V145.684H237.157ZM264.072 223.495H243.886V154.27H264.072V223.495Z" fill="#6C63FF"/>
<path d="M143.795 223.495V146.22H137.066V223.495V232.082H143.795H170.71V223.495H143.795Z" fill="#6C63FF"/>
<path d="M121.926 154.27V145.683H88.282V146.22V154.27V184.321V192.907V223.495V232.082H95.0109H121.926V223.495H95.0109V192.907H121.926V184.321H95.0109V154.27H121.926Z" fill="#3F3D56"/>
<path d="M385.191 154.27V145.683H351.547V146.22V154.27V184.321V192.907V223.495V232.082H358.276H385.191V223.495H358.276V192.907H385.191V184.321H358.276V154.27H385.191Z" fill="#6C63FF"/>
<path d="M65.5723 146.22V217.183L47.8306 194.545L47.7903 194.597L47.7526 194.549L29.6154 217.692V145.952H22.8865V231.814H29.6154V229.835L47.7935 206.639L65.5723 229.326V232.082H72.3012V146.22H65.5723Z" fill="#3F3D56"/>
<path d="M329.258 146.22V148.198L311.08 171.394L293.3 148.708V145.952H286.572V231.814H293.3V160.85L311.042 183.489L311.083 183.437L311.12 183.484L329.258 160.341V232.082H335.986V146.22H329.258Z" fill="#3F3D56"/>
<path d="M153.767 93.3283C156.048 93.3283 157.897 90.9687 157.897 88.0581C157.897 85.1475 156.048 82.788 153.767 82.788C151.486 82.788 149.637 85.1475 149.637 88.0581C149.637 90.9687 151.486 93.3283 153.767 93.3283Z" fill="#6C63FF"/>
<path d="M51.8909 151.886C54.1719 151.886 56.021 149.526 56.021 146.615C56.021 143.705 54.1719 141.345 51.8909 141.345C49.6099 141.345 47.7607 143.705 47.7607 146.615C47.7607 149.526 49.6099 151.886 51.8909 151.886Z" fill="#6C63FF"/>
<path d="M133.576 269C135.857 269 137.706 266.64 137.706 263.73C137.706 260.819 135.857 258.46 133.576 258.46C131.295 258.46 129.446 260.819 129.446 263.73C129.446 266.64 131.295 269 133.576 269Z" fill="#6C63FF"/>
<path d="M237.288 109.139C239.569 109.139 241.418 106.779 241.418 103.869C241.418 100.958 239.569 98.5984 237.288 98.5984C235.007 98.5984 233.158 100.958 233.158 103.869C233.158 106.779 235.007 109.139 237.288 109.139Z" fill="#6C63FF"/>
<path d="M358.897 264.315C361.178 264.315 363.027 261.956 363.027 259.045C363.027 256.135 361.178 253.775 358.897 253.775C356.616 253.775 354.767 256.135 354.767 259.045C354.767 261.956 356.616 264.315 358.897 264.315Z" fill="#6C63FF"/>
<path d="M363.027 126.12C365.308 126.12 367.157 123.761 367.157 120.85C367.157 117.94 365.308 115.58 363.027 115.58C360.746 115.58 358.897 117.94 358.897 120.85C358.897 123.761 360.746 126.12 363.027 126.12Z" fill="#6C63FF"/>
<path d="M310.712 220.983C312.993 220.983 314.843 218.624 314.843 215.713C314.843 212.802 312.993 210.443 310.712 210.443C308.431 210.443 306.582 212.802 306.582 215.713C306.582 218.624 308.431 220.983 310.712 220.983Z" fill="#6C63FF"/>
</g>
<defs>
<clipPath id="clip0_30_664">
<rect width="408" height="269" fill="white"/>
</clipPath>
</defs>
</svg>
